<svg xmlns="http://www.w3.org/2000/svg" viewBox="0 0 200 200">
    <!-- 定义渐变 -->
    <defs>
        <!-- 主背景渐变 -->
        <linearGradient id="bgGradient" x1="0%" y1="0%" x2="100%" y2="100%">
            <stop offset="0%" style="stop-color:#5CB3FF"/>
            <stop offset="100%" style="stop-color:#4192FF"/>
        </linearGradient>
        
        <!-- 高光渐变 -->
        <linearGradient id="highlight" x1="0%" y1="0%" x2="100%" y2="100%">
            <stop offset="0%" style="stop-color:rgba(255,255,255,0.5)"/>
            <stop offset="100%" style="stop-color:rgba(255,255,255,0)"/>
        </linearGradient>

        <!-- 阴影渐变 -->
        <linearGradient id="shadow" x1="0%" y1="0%" x2="0%" y2="100%">
            <stop offset="0%" style="stop-color:rgba(0,0,0,0)"/>
            <stop offset="100%" style="stop-color:rgba(0,0,0,0.1)"/>
        </linearGradient>
    </defs>
    
    <!-- 主背景圆 -->
    <circle cx="100" cy="100" r="90" fill="url(#bgGradient)"/>
    
    <!-- 顶部高光 -->
    <path d="M30 100 A70 70 0 0 1 170 100" 
          stroke="url(#highlight)"
          stroke-width="40"
          fill="none"
          opacity="0.5"/>
    
    <!-- 手机主体 -->
    <g transform="translate(100,100) rotate(-45) translate(-100,-100)">
        <!-- 手机外壳 - 更圆润的形状 -->
        <path d="M65 55
                 h70
                 a15 15 0 0 1 15 15
                 v60
                 a15 15 0 0 1 -15 15
                 h-70
                 a15 15 0 0 1 -15 -15
                 v-60
                 a15 15 0 0 1 15 -15
                 Z" 
              fill="white"/>
        
        <!-- 内部阴影 -->
        <path d="M65 55
                 h70
                 a15 15 0 0 1 15 15
                 v60
                 a15 15 0 0 1 -15 15
                 h-70
                 a15 15 0 0 1 -15 -15
                 v-60
                 a15 15 0 0 1 15 -15
                 Z" 
              fill="url(#shadow)"/>

        <!-- 表情眼睛 -->
        <circle cx="85" cy="85" r="4" fill="#47A1FF"/>
        <circle cx="115" cy="85" r="4" fill="#47A1FF"/>

        <!-- 开心的嘴巴 -->
        <path d="M90 105 
                 Q100 115 110 105"
              stroke="#47A1FF"
              stroke-width="3.5"
              stroke-linecap="round"
              fill="none"/>

        <!-- 可爱的腮红 -->
        <circle cx="75" cy="95" r="6" fill="#FFB5B5" opacity="0.3"/>
        <circle cx="125" cy="95" r="6" fill="#FFB5B5" opacity="0.3"/>
        
        <!-- 键盘区装饰 - 更大更圆的按钮 -->
        <g transform="translate(75,120)">
            <circle cx="8" cy="0" r="4" fill="#47A1FF" opacity="0.6"/>
            <circle cx="25" cy="0" r="4" fill="#47A1FF" opacity="0.6"/>
            <circle cx="42" cy="0" r="4" fill="#47A1FF" opacity="0.6"/>
        </g>
    </g>

    <!-- 装饰性小泡泡 -->
    <circle cx="45" cy="75" r="4" fill="white" opacity="0.5"/>
    <circle cx="155" cy="125" r="3" fill="white" opacity="0.5"/>
    <circle cx="140" cy="45" r="2" fill="white" opacity="0.5"/>
</svg>
