<svg id="group_building_16" viewBox="0 0 16 16" fill="none" xmlns="http://www.w3.org/2000/svg"><path fill-rule="evenodd" clip-rule="evenodd" d="M9.96517 14.971L4.49632 12.5292C4.35907 12.4704 4.22457 12.4065 4.09307 12.3377L4.08506 12.3335C2.25034 11.3699 1 9.45409 1 7.24797C1 4.07345 3.58896 1.5 6.78261 1.5H9.21739C12.411 1.5 15 4.07345 15 7.24797C15 9.78262 13.3495 11.9341 11.0586 12.6984C10.7744 12.7933 10.4802 12.8667 10.1782 12.917C10.1479 12.922 10.1175 12.9269 10.0871 12.9314C10.102 13.026 10.2621 13.4264 10.4537 13.8839C10.5119 14.0228 10.573 14.167 10.6338 14.3095C10.8134 14.7304 10.383 15.1575 9.96517 14.971ZM4.89003 11.61C4.77659 11.5614 4.66539 11.5085 4.55665 11.4516L4.55002 11.4482C3.02922 10.6495 2 9.06577 2 7.24797C2 4.63139 4.13557 2.5 6.78261 2.5H9.21739C11.8644 2.5 14 4.63139 14 7.24797C14 9.62182 12.2421 11.5971 9.93878 11.9424L8.94194 12.0919L9.09932 13.0875C9.1215 13.2278 9.17763 13.3816 9.2021 13.4486L9.20443 13.455C9.21563 13.4857 9.22779 13.5183 9.24075 13.5524L4.89705 11.613L4.89003 11.61ZM8.5 5V7H10.5V8H8.5V10H7.5V8H5.5V7H7.5V5H8.5Z" fill="currentColor"></path></svg>