<svg id="image_16" viewBox="0 0 16 16" fill="none" xmlns="http://www.w3.org/2000/svg"><path fill-rule="evenodd" clip-rule="evenodd" d="M13.4 3H2.6C2.30347 3 2.14122 3.00078 2.02463 3.0103L2.01145 3.01145L2.0103 3.02463C2.00078 3.14122 2 3.30347 2 3.6V6.54378C3.76593 6.69531 5.6606 7.23788 7.20938 8.13603C9.04994 9.20339 10.5 10.8388 10.5 13H13.4C13.6965 13 13.8588 12.9992 13.9754 12.9897L13.9886 12.9886L13.9897 12.9754C13.9992 12.8588 14 12.6965 14 12.4V3.6C14 3.30347 13.9992 3.14122 13.9897 3.02463L13.9886 3.01145L13.9754 3.0103C13.8588 3.00078 13.6965 3 13.4 3ZM1 6.5V7.5V12.4C1 12.9601 1 13.2401 1.10899 13.454C1.20487 13.6422 1.35785 13.7951 1.54601 13.891C1.75992 14 2.03995 14 2.6 14H13.4C13.9601 14 14.2401 14 14.454 13.891C14.6422 13.7951 14.7951 13.6422 14.891 13.454C15 13.2401 15 12.9601 15 12.4V3.6C15 3.03995 15 2.75992 14.891 2.54601C14.7951 2.35785 14.6422 2.20487 14.454 2.10899C14.2401 2 13.9601 2 13.4 2H2.6C2.03995 2 1.75992 2 1.54601 2.10899C1.35785 2.20487 1.20487 2.35785 1.10899 2.54601C1 2.75992 1 3.03995 1 3.6V6.5ZM6.70772 9.00109C5.32005 8.19637 3.60485 7.69748 2 7.54774V12.4C2 12.6965 2.00078 12.8588 2.0103 12.9754L2.01145 12.9886L2.02463 12.9897C2.14122 12.9992 2.30347 13 2.6 13H9.5C9.5 11.3441 8.39479 9.97944 6.70772 9.00109ZM11 6.5C11 6.77614 10.7761 7 10.5 7C10.2239 7 10 6.77614 10 6.5C10 6.22386 10.2239 6 10.5 6C10.7761 6 11 6.22386 11 6.5ZM12 6.5C12 7.32843 11.3284 8 10.5 8C9.67157 8 9 7.32843 9 6.5C9 5.67157 9.67157 5 10.5 5C11.3284 5 12 5.67157 12 6.5Z" fill="currentColor"></path></svg>