<svg id="lucky_money_16" viewBox="0 0 16 16" fill="none" xmlns="http://www.w3.org/2000/svg"><path fill-rule="evenodd" clip-rule="evenodd" d="M12.4 2H3.6C3.30347 2 3.14122 2.00078 3.02463 2.0103L3.01145 2.01145L3.0103 2.02463C3.00078 2.14122 3 2.30347 3 2.6V3.89895C3.63898 4.55111 4.39968 5.07227 5.23944 5.43264C5.49446 5.54209 5.75521 5.63603 6.02025 5.71418C6.0069 5.80753 5.99998 5.90296 5.99998 6C5.99998 6.27885 6.05705 6.54437 6.16015 6.78553C5.71121 6.67943 5.27115 6.53445 4.84508 6.3516C4.18148 6.06682 3.56109 5.6942 3 5.24497V12.4C3 12.6965 3.00078 12.8588 3.0103 12.9754L3.01145 12.9886L3.02463 12.9897C3.14122 12.9992 3.30347 13 3.6 13H12.4C12.6965 13 12.8588 12.9992 12.9754 12.9897L12.9886 12.9886L12.9897 12.9754C12.9992 12.8588 13 12.6965 13 12.4V5.24495C12.4493 5.68586 11.8414 6.05306 11.1914 6.33582C10.754 6.5261 10.3017 6.67639 9.83984 6.78552C9.53456 7.49961 8.82572 8 8 8C6.89543 8 6 7.10457 6 6C6 4.89543 6.89543 4 8 4C9.00752 4 9.84104 4.745 9.97973 5.71417C10.2559 5.63275 10.5273 5.53419 10.7925 5.41884C11.6198 5.05892 12.3693 4.54267 13 3.89893V2.6C13 2.30347 12.9992 2.14122 12.9897 2.02463L12.9886 2.01145L12.9754 2.0103C12.8588 2.00078 12.6965 2 12.4 2ZM2.10899 1.54601C2 1.75992 2 2.03995 2 2.6V12.4C2 12.9601 2 13.2401 2.10899 13.454C2.20487 13.6422 2.35785 13.7951 2.54601 13.891C2.75992 14 3.03995 14 3.6 14H12.4C12.9601 14 13.2401 14 13.454 13.891C13.6422 13.7951 13.7951 13.6422 13.891 13.454C14 13.2401 14 12.9601 14 12.4V2.6C14 2.03995 14 1.75992 13.891 1.54601C13.7951 1.35785 13.6422 1.20487 13.454 1.10899C13.2401 1 12.9601 1 12.4 1H3.6C3.03995 1 2.75992 1 2.54601 1.10899C2.35785 1.20487 2.20487 1.35785 2.10899 1.54601ZM9 6C9 6.55228 8.55228 7 8 7C7.44772 7 7 6.55228 7 6C7 5.44772 7.44772 5 8 5C8.55228 5 9 5.44772 9 6Z" fill="currentColor"></path></svg>