<svg id="Microphone" viewBox="0 0 16 16" fill="currentColor" xmlns="http://www.w3.org/2000/svg">
<path fill-rule="evenodd" clip-rule="evenodd" d="M11 4C11 2.34315 9.65685 1 8 1C6.34315 1 5 2.34315 5 4V8C5 9.65685 6.34315 11 8 11C9.65685 11 11 9.65685 11 8V4ZM6.00549 3.85074C6.08183 2.81588 6.94564 2 8 2C9.10457 2 10 2.89543 10 4V8L9.99451 8.14926C9.91817 9.18412 9.05436 10 8 10C6.89543 10 6 9.10457 6 8V4L6.00549 3.85074ZM8.5 13.4776V16H7.5V13.4776C4.76914 13.2315 2.61386 10.9893 2.50437 8.22121L2.5 8H3.5C3.5 10.4853 5.51472 12.5 8 12.5C10.4143 12.5 12.3845 10.5988 12.4951 8.21184L12.5 8H13.5C13.5 10.869 11.3033 13.225 8.5 13.4776Z" fill="currentColor"/>
</svg>
