<svg id="nav_qq_zone_normal_24" viewBox="0 0 24 24" fill="none" xmlns="http://www.w3.org/2000/svg"><path fill-rule="evenodd" clip-rule="evenodd" d="M12.6433 18.3791L12 18.0737L11.3568 18.3791L6.26006 20.7984L6.98605 15.2035L7.07767 14.4974L6.5885 13.98L2.71257 9.88039L8.25797 8.84193L8.95784 8.71087L9.29876 8.08575L12 3.13267L14.7013 8.08575L15.0422 8.71087L15.7421 8.84193L21.2875 9.88039L17.4115 13.98L16.9661 14.4512C16.658 14.4605 16.2834 14.4611 15.8727 14.4479C14.6574 14.4089 13.1255 14.2494 12.0625 13.8409C11.9733 13.8067 11.9432 13.7087 12.0254 13.6454C12.2886 13.4425 12.7366 13.1181 13.2305 12.7606C14.0477 12.1689 14.9906 11.4863 15.4301 11.1124C15.5676 10.9954 15.6039 10.8427 15.4367 10.7187C15.1162 10.4807 13.9846 10.0864 12.6746 10.0756C10.8 10.0603 8.95826 10.5909 8.15035 11.0203C7.95859 11.1223 8.07368 11.391 8.26961 11.3608C11.1368 10.92 13.0097 11.5836 13.0892 11.652C13.146 11.7008 13.1428 11.7726 13.0805 11.8216C13.073 11.8275 12.9986 11.8814 12.8734 11.9721C12.1099 12.5254 9.45641 14.4478 8.57191 15.1943C8.4098 15.3312 8.4524 15.6178 8.71768 15.6662C8.96479 15.7113 9.40568 15.7607 9.84882 15.7759C12.8952 15.8805 15.472 15.303 16.9629 14.8102L17.014 15.2035L17.74 20.7984L12.6433 18.3791ZM4.65456 21.5146L5.49852 15.0105L0.99274 10.2447C0.448929 9.66949 0.757284 8.72048 1.53533 8.57477L7.98187 7.36756L11.1221 1.60958C11.5011 0.914643 12.4989 0.914644 12.8779 1.60958L16.0182 7.36756L22.4647 8.57477C23.2428 8.72048 23.5511 9.66949 23.0073 10.2447L18.5015 15.0105L19.3455 21.5146C19.4473 22.2996 18.6401 22.8861 17.925 22.5467L12 19.7341L6.07507 22.5467C5.35998 22.8861 4.5527 22.2996 4.65456 21.5146Z" fill="currentColor"></path></svg>