<svg id="remote_control_16" viewBox="0 0 16 16" fill="none" xmlns="http://www.w3.org/2000/svg"><path fill-rule="evenodd" clip-rule="evenodd" d="M12.9999 2.99988H5.99991V5.00012H10.9999C11.5522 5.00012 11.9999 5.44784 11.9999 6.00012V7.99988H12.9999V2.99988ZM11.9999 8.99988H12.9999C13.5522 8.99988 13.9999 8.55216 13.9999 7.99988V2.99988C13.9999 2.44759 13.5522 1.99988 12.9999 1.99988H5.99991C5.44762 1.99988 4.99991 2.44759 4.99991 2.99988V5.00012H2.99991C2.44762 5.00012 1.99991 5.44784 1.99991 6.00012V11.0001C1.99991 11.5524 2.44762 12.0001 2.99991 12.0001H6.83324V13.0001H4.99991V14.0001H9.66657V13.0001H7.83324V12.0001H10.9999C11.5522 12.0001 11.9999 11.5524 11.9999 11.0001V8.99988ZM14 13V12H13V13H12V14H13C13.5523 14 14 13.5523 14 13ZM2 4V3C2 2.44772 2.44771 2 3 2H4V3H3V4H2ZM10.9999 6.00012H2.99991V11.0001H10.9999V6.00012Z" fill="currentColor"></path></svg>