<svg id="screenshot_16" viewBox="0 0 16 16" fill="none" xmlns="http://www.w3.org/2000/svg"><path fill-rule="evenodd" clip-rule="evenodd" d="M12.0208 2.72928C12.4113 2.33875 12.4113 1.70559 12.0208 1.31506L7.51792 5.81794L3.01504 1.31506C2.62452 1.70559 2.62452 2.33875 3.01504 2.72928L6.81081 6.52505L4.91437 8.42149C3.94368 7.7784 2.62298 7.88446 1.76776 8.73969C0.791445 9.716 0.791445 11.2989 1.76776 12.2752C2.74407 13.2515 4.32698 13.2515 5.30329 12.2752C6.15852 11.42 6.26458 10.0993 5.62148 9.1286L7.51792 7.23215L9.41437 9.1286C8.77126 10.0993 8.87732 11.42 9.73255 12.2752C10.7089 13.2515 12.2918 13.2515 13.2681 12.2752C14.2444 11.2989 14.2444 9.716 13.2681 8.73969C12.4129 7.88446 11.0922 7.7784 10.1215 8.42149L8.22503 6.52505L12.0208 2.72928ZM4.59618 11.5681C4.0104 12.1539 3.06065 12.1539 2.47486 11.5681C1.88908 10.9823 1.88908 10.0326 2.47486 9.4468C3.06065 8.86101 4.0104 8.86101 4.59618 9.4468C5.18197 10.0326 5.18197 10.9823 4.59618 11.5681ZM12.561 11.5681C11.9752 12.1539 11.0254 12.1539 10.4397 11.5681C9.85387 10.9823 9.85387 10.0326 10.4397 9.4468C11.0254 8.86101 11.9752 8.86101 12.561 9.4468C13.1468 10.0326 13.1468 10.9823 12.561 11.5681Z" fill="currentColor"></path></svg>