<svg id="ScreenShare" viewBox="0 0 16 16" fill="none" xmlns="http://www.w3.org/2000/svg">
	<path d="M10.5221 7.1912L8.30088 5.0024C8.17446 4.87784 7.9605 4.96739 7.9605 5.14486V6.30259C6.08238 6.66477 4.81675 7.6614 4.67913 9.38265C4.6697 9.50058 4.81011 9.56095 4.89663 9.48025C5.74396 8.69004 6.41594 8.36474 7.9605 8.36474V9.52246C7.9605 9.69993 8.17446 9.78948 8.30088 9.66491L10.5221 7.47612C10.6016 7.39778 10.6016 7.26954 10.5221 7.1912Z" fill="currentColor" />
	<path fill-rule="evenodd" clip-rule="evenodd" d="M2 2C1.44772 2 1 2.44772 1 3L1 12C1 12.5523 1.44772 13 2 13H14C14.5523 13 15 12.5523 15 12L15 3C15 2.44772 14.5523 2 14 2H2ZM14 3H2L2 12H14L14 3Z" fill="currentColor" />
	<rect x="5" y="14" width="6" height="1" fill="currentColor" />
</svg>
