<svg id="telephone_16" viewBox="0 0 16 16" fill="none" xmlns="http://www.w3.org/2000/svg"><path d="M3.99496 2.1587L3.99496 2.15869L4.11308 2.08538C4.11308 2.08538 4.11308 2.08538 4.11308 2.08538C4.34343 1.94241 4.66046 2.00694 4.82476 2.24978C5.31572 2.9754 5.85488 3.70354 6.4394 4.42695L6.82832 4.11271L6.43941 4.42695C6.55118 4.56529 6.58503 4.74588 6.53422 4.90696L7.01106 5.05737L6.53422 4.90696L6.14405 6.1439C6.07204 6.3722 6.07889 6.64188 6.21449 6.88327C6.38899 7.19392 6.7933 7.81739 7.58609 8.61018C8.38065 9.40473 9.01837 9.82233 9.33341 10.0031L9.58221 9.56936L9.33341 10.0031C9.5763 10.1424 9.85075 10.1524 10.085 10.0785L11.3219 9.68838C11.4828 9.63763 11.6631 9.67133 11.8014 9.7828C12.5143 10.3574 13.2317 10.8879 13.9466 11.3716C14.1894 11.5359 14.2539 11.8529 14.111 12.0833L14.0377 12.2014C13.468 13.1191 12.6542 13.6969 11.7735 13.5936C10.4529 13.4386 8.35802 12.7473 5.90352 10.2928C3.44903 7.83834 2.75778 5.74346 2.6028 4.42289C2.49944 3.54221 3.07723 2.72831 3.99496 2.1587Z" stroke="currentColor"></path></svg>